# xmcd CD database file
#
# Track frame offsets:
#	150
#	16588
#	33940
#	49295
#
# Disc length: 914 seconds
#
# Revision: 0
# Processed by: cddbd v1.4PL0 Copyright (c) Steve Scherf et al.
# Submitted via: Feurio! 1.66 - http://www.feurio.com
#
DISCID=24039004
DTITLE=Judith Lefeber - I Will Follow You
DYEAR=1900
DGENRE=
TTITLE0=I Will Follow You (Radio Edition)
TTITLE1=I Will Follow You (Classic Edition)
TTITLE2=The Way You Look At Me
TTITLE3=I Will Follow You
EXTD=
EXTT0=
EXTT1=
EXTT2=
EXTT3=
PLAYORDER=
